# xmcd
#
# Track frame offsets: 
#        150
#        16432
#        26945
#        38049
#        57829
#        81441
#        103034
#        116019
#        131000
#        149865
#        173100
#        192250
#        212857
#        233245
#        246568
#        259108
#        274206
#        290331
#        304500
#        326714
#
# Disc length: 4600 seconds
#
# Revision: 1
# Processed by: cddbd v1.5.2PL0 Copyright (c) Steve Scherf et al.
# Submitted via: ExactAudioCopy v1.1
#
DISCID=3a11f614
DTITLE=Jose Feliciano - No Jive The Very Best Of Jose Feliciano 1964-7
DTITLE=5 [CD 01]
DYEAR=2013
DGENRE=Pop
TTITLE0=Light My Fire
TTITLE1=If I Really Bug You, Then You Don't Love Me
TTITLE2=Rain
TTITLE3=Golden Lady
TTITLE4=She's A Woman
TTITLE5=Masters Of War
TTITLE6=Nature Boy
TTITLE7=Hitchcock Railway
TTITLE8=Yes We Can Can
TTITLE9=Susie-Q
TTITLE10=No Jive
TTITLE11=I Can't Get Next To You
TTITLE12=Where Is My Woman
TTITLE13=Chico And The Man (Main Theme)
TTITLE14=Pegao
TTITLE15=(I Can't Get No) Satisfaction
TTITLE16=Affirmation
TTITLE17=Magnolia
TTITLE18=The Gypsy
TTITLE19=And I Love Her
EXTD=
EXTT0=
EXTT1=
EXTT2=
EXTT3=
EXTT4=
EXTT5=
EXTT6=
EXTT7=
EXTT8=
EXTT9=
EXTT10=
EXTT11=
EXTT12=
EXTT13=
EXTT14=
EXTT15=
EXTT16=
EXTT17=
EXTT18=
EXTT19=
PLAYORDER=
